<svg width="1090" height="291" viewBox="0 0 1090 291" fill="none" xmlns="http://www.w3.org/2000/svg">
<path d="M443.627 62.1989C502.225 62.1989 561.461 61.1299 619.034 49.442C673.861 38.3117 727.67 55.4247 782.564 57.8C826.099 59.6837 865.584 45.268 908.373 41.524C923.809 40.1733 938.632 38.2404 953.902 35.6954C962.642 34.2386 969.781 34.6167 976.116 41.304C990.099 56.0637 990.329 80.1546 986.014 98.7099C981.37 118.676 985.727 127.936 998.99 142.919C1019.38 165.951 1051.95 171.974 1073.11 193.946C1079.64 200.73 1084.83 207.751 1086.09 217.481C1087.67 229.671 1080.98 256.133 1070.25 263.449C1057.66 272.035 1035.32 271.62 1020.77 271.917C982.793 272.692 948.896 266.198 911.672 259.93C837.175 247.385 759.004 254.418 684.138 258.94C652.404 260.857 619.432 257.189 588.132 263.559C566.694 267.923 546.901 277.557 525.227 281.485C452.945 294.583 379.596 281.036 311 258.171" stroke="#D6AF45" stroke-width="7" stroke-linecap="round" stroke-dasharray="20 20"/>
<path d="M309.994 257.741C302.643 257.741 296.986 256.656 290.089 253.782C274.673 247.358 255.553 253.782 239.501 253.782C215.592 253.782 193.861 255.479 170.328 258.841C143.889 262.618 111.604 263.992 85.2094 257.741C58.1221 251.325 38.262 235.914 23.2947 212.102C0.22117 175.394 -0.117137 134.742 10.098 93.8812C17.2924 65.1037 29.0456 39.1398 55.9567 24.1584C69.3539 16.7001 83.8036 12.1829 98.6261 8.54225C102.547 7.57911 112.187 8.03428 114.022 4.36328" stroke="#D6AF45" stroke-width="7" stroke-linecap="round" stroke-dasharray="20 20"/>
</svg>
