<svg width="1028" height="361" viewBox="0 0 1028 361" fill="none" xmlns="http://www.w3.org/2000/svg">
<path d="M142.887 2.24414C156.281 3.27445 172.533 6.18436 184.319 12.6979C205.115 24.1902 230.099 28.6367 253.034 34.3704C278.737 40.7962 304.235 41.2546 330.545 41.2546C356.89 41.2546 382.408 42.1353 408.311 36.6652C432.688 31.5173 458.822 19.3378 483.655 18.4348C502.731 17.7411 521.937 18.3073 541.023 18.3073C548.63 18.3073 556.236 18.3073 563.843 18.3073C571.688 18.3073 578.278 22.6939 585.77 25.1915" stroke="black" stroke-width="4" stroke-linecap="round" stroke-dasharray="6 6"/>
<path d="M744.107 50.4336C749.259 58.0582 759.101 74.2921 748.059 81.285C736.544 88.5778 720.019 93.2004 706.627 95.3084C672.97 100.606 633.058 98.5682 599.029 95.8183C569.245 93.4115 538.78 92.475 509.024 95.8183C501.987 96.6091 480.551 99.9017 477.918 107.802" stroke="black" stroke-width="4" stroke-linecap="round" stroke-dasharray="6 6"/>
<path d="M5.20245 116.981C-0.0344846 117.636 4.04047 128.828 5.32993 131.514C10.6635 142.626 30.0587 147.03 40.3884 150.892C55.1649 156.417 70.7952 156.13 85.5182 161.856C104.627 169.287 121.307 169.76 141.612 169.76C154.875 169.76 199.59 177.094 204.334 158.796C207.089 148.17 177.739 139.762 171.571 143.753C164.156 148.55 162.56 156.907 165.834 164.66C170.755 176.316 189.553 178.286 200.127 181.106C243.014 192.542 290.645 189.361 334.114 184.038C366.444 180.079 398.407 179.733 430.493 173.202C463.361 166.512 496.731 161.758 530.314 160.708C549.65 160.104 570.426 158.885 589.595 161.601C597.667 162.744 602.977 167.465 611.012 167.465" stroke="black" stroke-width="4" stroke-linecap="round" stroke-dasharray="6 6"/>
<path d="M1010.3 188.118C1017.06 194.506 1029.57 199.955 1024.7 211.193C1014.17 235.49 972.766 243.23 950.251 245.231C926.317 247.359 902.218 247.275 878.222 247.781C852.069 248.333 826.955 254.642 800.966 256.45C754.79 259.662 707.558 260.376 661.497 255.685C626.703 252.141 592.375 243.324 557.469 241.407C531.556 239.983 505.394 240.897 479.448 240.897C457.341 240.897 436.643 240.112 418.255 252.37" stroke="black" stroke-width="4" stroke-linecap="round" stroke-dasharray="6 6"/>
<path d="M7.49707 256.96C16.3309 271.683 31.5473 283.587 48.1649 287.811C84.3573 297.013 123.88 305.491 161.244 307.189C198.973 308.904 237.448 309.518 275.216 309.739C296.561 309.864 316.997 310.92 338.194 313.308C352.451 314.915 366.891 313.207 381.029 315.858C416.134 322.44 448.69 333.753 480.212 349.514C502.784 360.8 528.855 357.928 553.261 357.928C573.568 357.928 592.676 358.72 611.777 350.534C621.332 346.439 625.771 339.57 636.254 339.57" stroke="black" stroke-width="4" stroke-linecap="round" stroke-dasharray="6 6"/>
</svg>
