<svg width="1107" height="462" viewBox="0 0 1107 462" fill="none" xmlns="http://www.w3.org/2000/svg">
<path d="M208.476 94.0926C217.114 94.0926 226.734 94.6059 235.064 97.0243C241.247 98.8193 246.727 102.686 252.958 104.202C259.848 105.878 267.564 105.011 274.592 105.011C306.383 105.011 338.062 103.571 369.822 103.191C403.69 102.785 432.339 87.1136 464.548 79.535C477.527 76.4811 477.033 56.7531 480.42 46.7805C485.708 31.2101 497.406 19.8299 510.95 11.1953C534.682 -3.93392 561.009 2.79211 578.784 22.1135C584.352 28.1654 589.033 31.792 591.017 39.9061C592.496 45.9576 594.977 54.8223 597.891 60.3271C603.101 70.169 618.362 89.67 630.646 82.1635C642.745 74.7696 643.735 54.0754 652.482 43.1411" stroke="#563E25" stroke-width="4" stroke-linecap="round" stroke-dasharray="8 8"/>
<path d="M657.941 101.371C647.352 101.371 643.295 106.36 640.553 116.333C634.066 139.921 628.948 163.638 620.637 186.695C613.905 205.37 601.915 228.518 582.828 237.646C564.569 246.379 527.651 247.022 510.647 235.119C488.949 219.93 481.148 186.699 467.277 165.06C458.766 151.782 445.831 156.107 432.097 159.197C412.807 163.537 399.488 174.011 378.719 174.159C361.147 174.284 344.129 170.52 326.756 170.52" stroke="#563E25" stroke-width="4" stroke-linecap="round" stroke-dasharray="8 8"/>
<path d="M192.099 243.308C224.651 243.308 257.203 243.308 289.756 243.308C305.863 243.308 321.971 243.308 338.079 243.308C347.633 243.308 368.358 239.101 376.292 245.734C405.748 270.361 369.01 322.199 366.385 351.074C364.663 370.019 365.54 386.07 376.899 402.228C389.012 419.459 410.103 424.892 428.76 432.455C448.191 440.332 469.511 444.38 489.72 449.945C519.39 458.115 546.819 462.094 577.672 456.718C611.215 450.873 638.01 431.433 666.635 414.258C686.197 402.521 705.059 383.847 703.635 359.364C702.177 334.282 679.58 312.758 668.859 290.721C660.936 274.435 651.066 256.502 651.066 237.849C651.066 225.336 654.663 206.557 660.67 195.49C663.957 189.437 670.407 184.073 672.498 177.799" stroke="#563E25" stroke-width="4" stroke-linecap="round" stroke-dasharray="8 8"/>
<path d="M13.7684 79.5352C6.56331 92.5044 1.2592 108.822 15.5881 119.568" stroke="#563E25" stroke-width="4" stroke-linecap="round" stroke-dasharray="8 8"/>
<path d="M13.7685 170.52C6.11016 170.52 3.25519 184.107 2.9514 190.031C2.35775 201.607 3.81626 211.519 11.9488 219.651" stroke="#563E25" stroke-width="4" stroke-linecap="round" stroke-dasharray="8 8"/>
<path d="M1027.34 35.8623C1048.96 35.8623 1066.49 37.8376 1085.06 50.2177C1097.8 58.7076 1100.13 64.5756 1100.13 79.535" stroke="#563E25" stroke-width="4" stroke-linecap="round" stroke-dasharray="8 8"/>
<path d="M838.091 114.109C867.298 114.109 896.387 119.387 925.638 119.568C948.745 119.712 971.884 119.792 994.989 119.568C1020.47 119.322 1045.42 114.719 1070.2 123.612C1102.57 135.224 1122.83 186.97 1081.73 201.05C1053.2 210.821 1016.52 209.071 987.306 203.881C985.701 203.596 950.264 192.356 965.47 192.356" stroke="#563E25" stroke-width="4" stroke-linecap="round" stroke-dasharray="8 8"/>
</svg>
