<svg width="1016" height="435" viewBox="0 0 1016 435" fill="none" xmlns="http://www.w3.org/2000/svg">
<path d="M1013.82 297.279V299.332" stroke="#8F4519" stroke-width="4" stroke-linecap="round" stroke-dasharray="6 6"/>
<path d="M278.932 83.7936C294.732 111.551 329.015 130.369 358.305 140.586C421.176 162.518 496.958 143.012 558.561 124.849C589.808 115.636 620.144 103.408 651.049 93.145C691.421 79.7378 732.042 67.3184 771.363 50.9496C826.233 28.1079 883.367 -14.1211 945.96 8.64022C984.642 22.7062 967.899 76.9766 952.119 102.04C944.757 113.733 935.272 125.139 923.494 132.603C917.951 136.117 909.155 137.135 905.019 141.27" stroke="#CE7430" stroke-width="4" stroke-linecap="round" stroke-dasharray="6 6"/>
<path d="M853.701 172.062C875.303 173.262 896.634 179.672 916.196 188.712C936.778 198.223 979.766 215.876 979.147 244.364C978.576 270.599 950.841 280.114 928.969 276.181C915.395 273.741 906.233 266.068 894.756 260.33" stroke="#CE7430" stroke-width="4" stroke-linecap="round" stroke-dasharray="6 6"/>
<path d="M467.784 260.33C454.199 263.348 440.496 272.643 435.169 285.875C423.487 314.891 451.593 320.837 473.601 321.684C501 322.738 521.156 324.344 521.156 354.756" stroke="#CE7430" stroke-width="4" stroke-linecap="round" stroke-dasharray="6 6"/>
<path d="M498.576 408.128C463.27 431.245 424.337 446.187 387.043 415.997C371.225 403.191 358.293 384.961 355.112 364.564C352.818 349.856 359.11 330.832 349.638 317.807C335.458 298.31 307.495 297.279 285.888 297.279C273.267 297.279 255.541 296.037 246.088 305.49" stroke="#CE7430" stroke-width="4" stroke-linecap="round" stroke-dasharray="6 6"/>
<path d="M20.2855 293.174C9.43465 289.557 3.39452 272.53 2.26697 262.383C0.0453566 242.388 13.5547 234.564 28.4965 225.433" stroke="#CE7430" stroke-width="4" stroke-linecap="round" stroke-dasharray="6 6"/>
</svg>
