<svg width="806" height="373" viewBox="0 0 806 373" fill="none" xmlns="http://www.w3.org/2000/svg">
<path d="M619.837 366.429C659.882 368.696 702.869 373.845 740.083 354.883C768.525 340.392 813.963 299.031 799.553 263.174C791.148 242.259 771.776 225.783 751.956 216.229C696.506 189.504 628.884 176.669 567.991 170.157C537.337 166.878 499.391 162.969 469.746 174.296C457.606 178.934 428.998 201.452 434.456 218.19C439.18 232.677 489.214 224.473 494.144 211.328C497.732 201.761 483.945 193.623 477.588 190.307C451.979 176.945 420.99 177.725 393.067 180.395C295.256 189.747 200.457 224.008 106.392 250.539C83.4629 257.006 60.3439 262.709 36.9013 266.986C26.1312 268.951 13.7871 269.503 4.22559 274.283" stroke="#AC7F4E" stroke-width="7" stroke-linecap="round" stroke-dasharray="17 17"/>
<path d="M45.3965 3.72852C57.7512 10.3177 73.9164 7.6496 87.4393 7.6496C107.188 7.6496 126.943 7.78771 146.691 7.6496C169.827 7.48782 191.872 4.83908 215.093 7.21393C222.314 7.95248 232.537 8.0225 237.203 14.7293C243.721 24.0982 235.082 30.7296 226.856 34.2259C210.989 40.9694 189.583 42.6281 172.941 37.8202C170.668 37.1635 166.027 35.1153 167.822 31.6118C170.783 25.8304 184.338 27.2217 189.17 27.2551C244.236 27.6348 219.475 76.1087 219.885 111.341C220.155 134.565 252.437 122.684 246.461 100.667C243.358 89.2349 228.96 89.9925 219.667 89.9925C199.083 89.9925 184.681 101 171.089 115.697C159.418 128.319 153.226 139.761 153.226 156.651" stroke="#AC7F4E" stroke-width="7" stroke-linecap="round" stroke-dasharray="17 17"/>
</svg>
