<svg width="871" height="208" viewBox="0 0 871 208" fill="none" xmlns="http://www.w3.org/2000/svg">
<path d="M4.04785 67.59C5.42505 93.4124 15.392 118.959 24.7255 142.827C30.6743 158.039 36.2299 168.863 49.0155 178.452C58.4357 185.517 70.6319 191.223 81.6514 195.393C94.1635 200.127 105.595 202.119 118.896 202.119C133.962 202.119 146.157 197.035 160.75 194.895C183.329 191.583 205.326 185.638 228.263 184.431C263.61 182.571 299.354 189.355 334.018 195.517C396.151 206.563 490.638 216.459 537.93 163.255C549.886 149.805 540.569 129.326 540.048 113.43C539.23 88.4948 535.646 56.8444 545.902 33.4594C556.295 9.76333 595.833 7.83046 617.651 5.80611C654.609 2.37708 692.669 4.80959 729.759 4.80959C755.661 4.80959 783.407 4.70937 808.608 11.9098C844.721 22.2277 830.103 78.7074 821.189 104.835C814.768 123.654 790.544 165.464 807.985 184.431C816.085 193.239 862.492 203.025 867.278 188.666" stroke="№" stroke-width="7" stroke-linecap="round" stroke-dasharray="20 20"/>
</svg>
