<svg width="678" height="151" viewBox="0 0 678 151" fill="none" xmlns="http://www.w3.org/2000/svg">
<path d="M200.046 54.2646C222.739 56.3276 232.607 99.238 203.794 99.238" stroke="#B7276E" stroke-width="2" stroke-linecap="round" stroke-dasharray="6 6"/>
<path d="M23.9006 97.3643C10.7357 107.116 8.90942 114.173 8.90942 129.22C8.90942 138.233 20.6713 149.833 29.5222 149.833" stroke="#B7276E" stroke-width="2" stroke-linecap="round" stroke-dasharray="6 6"/>
<path d="M402.427 149.833C420.895 146.574 436.432 133.684 445.526 117.768C453.983 102.969 457.021 85.0912 467.18 71.5458C477.449 57.8539 484.09 45.8661 500.494 38.6486C508.171 35.2705 518.268 37.9673 526.104 39.2732" stroke="#B7276E" stroke-width="2" stroke-linecap="round" stroke-dasharray="6 6"/>
<path d="M676.015 67.3818C674.993 77.0887 669.183 88.6072 660.191 93.5122C653.733 97.0348 645.59 95.0889 638.537 95.9066C630.523 96.8357 607.123 95.5936 604.807 104.86" stroke="#B7276E" stroke-width="2" stroke-linecap="round" stroke-dasharray="6 6"/>
<path d="M511.112 101.111C510.133 106.986 503.59 110.048 501.951 115.374C499.722 122.619 504.597 125.328 507.989 130.677C512.234 137.37 518.785 143.157 526.103 146.085" stroke="#B7276E" stroke-width="2" stroke-linecap="round" stroke-dasharray="6 6"/>
<path d="M27.6484 1.7959C15.365 2.91257 -7.58146 17.8983 4.32882 32.611C7.99609 37.1412 14.4435 42.7998 20.1528 44.479C25.4369 46.0331 31.9111 46.9552 33.27 52.391" stroke="#B7276E" stroke-width="2" stroke-linecap="round" stroke-dasharray="6 6"/>
</svg>
