<svg width="875" height="392" viewBox="0 0 875 392" fill="none" xmlns="http://www.w3.org/2000/svg">
<path d="M355.963 37.9617C408.858 35.6281 459.022 18.4381 510.957 9.92898C538.423 5.42889 607.469 -11.8602 615.673 30.1849C618.382 44.0688 611.747 56.0098 607.896 68.5264C605.673 75.7522 600.787 83.3705 593.608 85.1651" stroke="#FF0404" stroke-width="4" stroke-linecap="round" stroke-dasharray="6 6"/>
<path d="M85.7642 147.018C86.7243 155.659 99.5027 157.3 106.201 159.135C129.385 165.49 151.267 174.627 174.112 181.742C206.306 191.77 244.62 191.122 278.014 189.158C307.874 187.401 335.565 174.982 365.729 174.689C378.545 174.565 396.78 173.185 406.422 182.828" stroke="#FF0404" stroke-width="4" stroke-linecap="round" stroke-dasharray="6 6"/>
<path d="M403.167 303.277C376.648 312.117 360.753 300.466 341.133 284.378C329.155 274.556 313.909 260.957 297.366 260.957" stroke="#FF0404" stroke-width="4" stroke-linecap="round" stroke-dasharray="6 6"/>
<path d="M2.75146 270.724C2.75146 285.958 20.7702 291.537 32.864 293.512C68.0726 299.26 104.369 303.398 139.117 311.416C151.073 314.175 160.883 319.722 171.762 325.161C175.4 326.98 186.088 331.041 186.682 336.194C187.259 341.193 188.087 347.577 193.193 348.853" stroke="#FF0404" stroke-width="4" stroke-linecap="round" stroke-dasharray="6 6"/>
<path d="M626.162 124.23C628.993 132.723 642.98 137.713 649.493 142.949C664.103 154.694 677.38 159.469 696.063 163.114C738.035 171.304 779.942 164.509 821.848 162.029C829.066 161.602 878.837 156.835 871.674 177.13C866.397 192.083 836.889 187.71 824.742 187.71" stroke="#FF0404" stroke-width="4" stroke-linecap="round" stroke-dasharray="6 6"/>
<path d="M821.487 212.126C837.264 236.509 841.455 271.001 835.865 299.299C832.18 317.956 825.017 338.394 810.997 351.747C797.574 364.531 780.288 384.053 761.443 388.461C719.902 398.176 705.852 353.821 687.382 326.517C683.362 320.575 673.776 309.788 666.855 309.788" stroke="#FF0404" stroke-width="4" stroke-linecap="round" stroke-dasharray="6 6"/>
</svg>
