<svg width="523" height="396" viewBox="0 0 523 396" fill="none" xmlns="http://www.w3.org/2000/svg">
<path d="M162.648 18.0636C211.158 4.89194 268.27 -4.22399 317.236 11.3207C336.256 17.359 348.542 24.3907 358.193 42.0385C365.611 55.6033 375.512 90.6985 364.187 104.598C351.799 119.801 317.46 117.946 318.609 93.2348C319.861 66.3316 367.538 47.0687 388.536 39.5411C412.421 30.9787 433.984 22.5589 459.462 22.5589C481.766 22.5589 499.593 28.3834 520.023 36.0447" stroke="#F4ABE8" stroke-width="5" stroke-linecap="round" stroke-dasharray="11 11"/>
<path d="M511.033 103.474C484.713 103.474 444.064 109.904 431.616 137.063C416.113 170.889 488.854 176.852 485.934 141.808C484.652 126.424 457.426 126.943 447.599 130.445C422.867 139.261 399.944 164.296 386.164 186.137C378.834 197.753 376.621 223.363 385.664 235.086C389.411 239.942 397.719 238.332 403.146 238.332" stroke="#0250BB" stroke-width="5" stroke-linecap="round" stroke-dasharray="11 11"/>
<path d="M394.741 255.46C399.001 281.689 403.402 309.044 382.111 328.829C374.586 335.822 366.307 341.748 356.334 344.617C352.374 345.756 346.707 348.213 343.073 346.396" stroke="#F1F0F0" stroke-width="5" stroke-linecap="round" stroke-dasharray="11 11"/>
<path d="M382.341 269.928C380.721 293.574 378.83 317.914 372.237 340.77C367.988 355.5 358.534 372.617 343.073 378.029C333.022 381.547 321.838 379.425 319.535 367.58C316.764 353.33 326.595 340.152 335.61 330.265C340.628 324.761 346.455 318.822 354.095 317.348C364.845 315.273 379.558 320.114 383.489 331.24C388.826 346.351 380.543 365.871 371.203 377.627C368.441 381.104 364.38 386.54 359.607 384.631" stroke="#F1F0F0" stroke-width="5" stroke-linecap="round" stroke-dasharray="11 11"/>
<path d="M406.108 305.062C396.202 305.062 389.109 307.785 380.274 312.295C361.949 321.649 350.619 332.863 346.402 353.342C343.777 366.094 349.362 376.431 358.631 384.63C362.606 388.147 368.048 393.246 373.844 393.012C380.498 392.743 385.527 382.843 387.852 377.626C400.306 349.674 350.511 354.663 337.045 354.663C329.333 354.663 321.621 354.663 313.909 354.663C310.327 354.663 308.473 356.73 304.838 356.73" stroke="#FFE800" stroke-width="5" stroke-linecap="round" stroke-dasharray="11 11"/>
<path d="M205.223 311.68C233.486 313.865 259.909 318.231 286.778 308.528C299.27 304.017 315.366 302.982 324.009 292.178" stroke="#F1F0F0" stroke-width="5" stroke-linecap="round" stroke-dasharray="11 11"/>
<path d="M186.885 309.532C207.704 309.532 230.641 311.526 250.413 303.954C274.221 294.836 297.958 291.193 307.587 264.598C320.366 229.304 284.973 201.591 253.512 194.718C244.946 192.847 178.082 188.546 196.492 213.621C207.346 228.405 258.757 230.953 257.773 206.339C256.568 176.217 200.496 172.956 180.145 171.476C161.863 170.147 144.584 169.289 126.302 171.476C102.613 174.311 78.671 177.603 54.8725 179.223C39.82 180.248 23.6525 178.259 8.93135 174.885C6.35012 174.293 2.81104 171.222 2.81104 171.476" stroke="#FF3607" stroke-width="5" stroke-linecap="round" stroke-dasharray="11 11"/>
</svg>
